<svg width="97" height="59" viewBox="0 0 97 59" fill="none" xmlns="http://www.w3.org/2000/svg">
<path d="M32.256 13.608V48H27.6V32.352H9.048V48H4.392V13.608H9.048V28.944H27.6V13.608H32.256ZM76.8323 13.608V48H72.7523V22.728C72.7523 22.392 72.7603 22.032 72.7763 21.648C72.8083 21.264 72.8403 20.872 72.8723 20.472L61.0643 41.976C60.6963 42.696 60.1363 43.056 59.3843 43.056H58.7123C57.9603 43.056 57.4003 42.696 57.0323 41.976L44.9843 20.376C45.0803 21.224 45.1283 22.008 45.1283 22.728V48H41.0483V13.608H44.4803C44.8963 13.608 45.2163 13.648 45.4403 13.728C45.6643 13.808 45.8803 14.032 46.0883 14.4L57.9683 35.568C58.1603 35.952 58.3443 36.352 58.5203 36.768C58.7123 37.184 58.8883 37.608 59.0483 38.04C59.2083 37.608 59.3763 37.184 59.5523 36.768C59.7283 36.336 59.9203 35.928 60.1283 35.544L71.7923 14.4C71.9843 14.032 72.1923 13.808 72.4163 13.728C72.6563 13.648 72.9843 13.608 73.4003 13.608H76.8323Z" fill="white"/>
<circle cx="89" cy="44" r="5" fill="#FF3838"/>
</svg>
